<svg xmlns="http://www.w3.org/2000/svg" width="160" height="144" viewBox="0 0 160 144"><defs><linearGradient id="metal" x2=".3" y2="1"><stop stop-color="#bbbea5"/><stop offset=".4" stop-color="#798c87"/><stop offset="1" stop-color="#435b63"/></linearGradient><linearGradient id="wood" x2="0" y2="1"><stop stop-color="#b37b54"/><stop offset="1" stop-color="#654334"/></linearGradient><linearGradient id="glass" x2="1" y2="1"><stop stop-color="#c5e9d6" stop-opacity=".8"/><stop offset=".35" stop-color="#5f9f97" stop-opacity=".3"/><stop offset="1" stop-color="#bfe3cf" stop-opacity=".65"/></linearGradient></defs><ellipse cx="80" cy="129" rx="64" ry="7" fill="#09121a" opacity=".5"/><rect x="22" y="101" width="116" height="24" rx="5" fill="url(#wood)" stroke="#121e29" stroke-width="3"/><path d="M29 107h101" fill="none" stroke="#cf9669" stroke-width="2" stroke-linecap="round" stroke-linejoin="round"/><circle cx="32" cy="116" r="2" fill="#e5b16c" stroke="#182631" stroke-width="3"/><circle cx="128" cy="116" r="2" fill="#e5b16c" stroke="#182631" stroke-width="3"/><path d="M33 98l20-25M111 58l21-22" fill="none" stroke="#c49360" stroke-width="8" stroke-linecap="round" stroke-linejoin="round"/><g transform="rotate(35 80 68)"><rect x="65" y="32" width="30" height="74" rx="7" fill="url(#glass)" stroke="#121e29" stroke-width="3"/><rect x="63" y="28" width="34" height="18" rx="5" fill="url(#metal)" stroke="#121e29" stroke-width="3"/><rect x="63" y="92" width="34" height="18" rx="5" fill="url(#metal)" stroke="#121e29" stroke-width="3"/><path d="M80 46l-7 14 14 15-7 17" fill="none" stroke="#ffd986" stroke-width="3" stroke-linecap="round" stroke-linejoin="round"/></g><path d="M31 49h18M25 61h17M112 91h16" fill="none" stroke="#80dece" stroke-width="3" stroke-linecap="round" stroke-linejoin="round"/></svg>
