<svg xmlns="http://www.w3.org/2000/svg" width="128" height="128" viewBox="0 0 128 128"><g stroke-linecap="round" stroke-linejoin="round"><defs>
    <linearGradient id="pearl" x1="0" y1="0" x2="1" y2="1"><stop stop-color="#fcfff5"/><stop offset=".38" stop-color="#d8e4e9"/><stop offset=".62" stop-color="#a6bac8"/><stop offset="1" stop-color="#667b91"/></linearGradient>
    <linearGradient id="body" x1="0" y1="0" x2="1" y2="1"><stop stop-color="#6b829c"/><stop offset=".4" stop-color="#334c66"/><stop offset="1" stop-color="#102237"/></linearGradient>
    <linearGradient id="glass" x1="0" y1="0" x2=".7" y2="1"><stop stop-color="#456885"/><stop offset=".4" stop-color="#19384e"/><stop offset="1" stop-color="#081424"/></linearGradient>
    <linearGradient id="steel" x1="0" y1="0" x2="1" y2="0"><stop stop-color="#d6d1b9"/><stop offset=".35" stop-color="#7d8e9f"/><stop offset=".7" stop-color="#56647b"/><stop offset="1" stop-color="#bdc1b5"/></linearGradient>
    </defs><g transform="translate(3 4)" opacity=".8"><rect x="12" y="44" width="104" height="60" rx="12" fill="#070e19" stroke="#070e19" stroke-width="3"/><path d="M25 46L17 15M103 46l8-31" fill="none" stroke="#070e19" stroke-width="7" stroke-linecap="round" stroke-linejoin="round"/><circle cx="64" cy="72" r="18" fill="#070e19" stroke="#070e19" stroke-width="3"/><path d="M52 72h24M64 60v24" fill="none" stroke="#070e19" stroke-width="4" stroke-linecap="round" stroke-linejoin="round"/><circle cx="28" cy="94" r="3" fill="#070e19" stroke="#070e19" stroke-width="0"/><circle cx="39" cy="94" r="3" fill="#070e19" stroke="#070e19" stroke-width="0"/><circle cx="50" cy="94" r="3" fill="#070e19" stroke="#070e19" stroke-width="0"/><circle cx="78" cy="94" r="3" fill="#070e19" stroke="#070e19" stroke-width="0"/><circle cx="89" cy="94" r="3" fill="#070e19" stroke="#070e19" stroke-width="0"/><circle cx="100" cy="94" r="3" fill="#070e19" stroke="#070e19" stroke-width="0"/><path d="M43 33Q64 12 85 33" fill="none" stroke="#070e19" stroke-width="3" stroke-linecap="round" stroke-linejoin="round"/></g><rect x="12" y="44" width="104" height="60" rx="12" fill="url(#pearl)" stroke="#111b27" stroke-width="3"/><path d="M25 46L17 15M103 46l8-31" fill="none" stroke="#91d8ee" stroke-width="7" stroke-linecap="round" stroke-linejoin="round"/><circle cx="64" cy="72" r="18" fill="url(#glass)" stroke="#76c5e5" stroke-width="3"/><path d="M52 72h24M64 60v24" fill="none" stroke="#a9edeb" stroke-width="4" stroke-linecap="round" stroke-linejoin="round"/><circle cx="28" cy="94" r="3" fill="#64c6c2" stroke="#111b27" stroke-width="0"/><circle cx="39" cy="94" r="3" fill="#64c6c2" stroke="#111b27" stroke-width="0"/><circle cx="50" cy="94" r="3" fill="#64c6c2" stroke="#111b27" stroke-width="0"/><circle cx="78" cy="94" r="3" fill="#64c6c2" stroke="#111b27" stroke-width="0"/><circle cx="89" cy="94" r="3" fill="#64c6c2" stroke="#111b27" stroke-width="0"/><circle cx="100" cy="94" r="3" fill="#64c6c2" stroke="#111b27" stroke-width="0"/><path d="M43 33Q64 12 85 33" fill="none" stroke="#88cfe0" stroke-width="3" stroke-linecap="round" stroke-linejoin="round"/><path d="M19 49h78M17 52v30" fill="none" stroke="#f3fff6" stroke-width="2" stroke-linecap="round" stroke-linejoin="round"/><rect x="20" y="61" width="4" height="18" rx="1" fill="#153149" stroke="#111b27" stroke-width="0"/><rect x="28" y="61" width="4" height="18" rx="1" fill="#153149" stroke="#111b27" stroke-width="0"/><rect x="36" y="61" width="4" height="18" rx="1" fill="#153149" stroke="#111b27" stroke-width="0"/><rect x="85" y="65" width="3" height="13" rx="1" fill="#153149" stroke="#111b27" stroke-width="0"/><rect x="92" y="65" width="3" height="13" rx="1" fill="#153149" stroke="#111b27" stroke-width="0"/><rect x="99" y="65" width="3" height="13" rx="1" fill="#153149" stroke="#111b27" stroke-width="0"/><circle cx="19" cy="94" r="2.2" fill="#111d2c" stroke="#91a6b3" stroke-width="0.8"/><path d="M18 94h2" fill="none" stroke="#d4e2de" stroke-width="0.8" stroke-linecap="round" stroke-linejoin="round"/><circle cx="108" cy="94" r="2.2" fill="#111d2c" stroke="#91a6b3" stroke-width="0.8"/><path d="M107 94h2" fill="none" stroke="#d4e2de" stroke-width="0.8" stroke-linecap="round" stroke-linejoin="round"/><path d="M21 17l5 21M108 17l-5 21" fill="none" stroke="#e3fff1" stroke-width="2" stroke-linecap="round" stroke-linejoin="round"/></g></svg>
