<svg xmlns="http://www.w3.org/2000/svg" width="128" height="128" viewBox="0 0 128 128"><g stroke-linecap="round" stroke-linejoin="round"><defs>
    <linearGradient id="pearl" x1="0" y1="0" x2="1" y2="1"><stop stop-color="#fcfff5"/><stop offset=".38" stop-color="#d8e4e9"/><stop offset=".62" stop-color="#a6bac8"/><stop offset="1" stop-color="#667b91"/></linearGradient>
    <linearGradient id="body" x1="0" y1="0" x2="1" y2="1"><stop stop-color="#6b829c"/><stop offset=".4" stop-color="#334c66"/><stop offset="1" stop-color="#102237"/></linearGradient>
    <linearGradient id="glass" x1="0" y1="0" x2=".7" y2="1"><stop stop-color="#456885"/><stop offset=".4" stop-color="#19384e"/><stop offset="1" stop-color="#081424"/></linearGradient>
    <linearGradient id="steel" x1="0" y1="0" x2="1" y2="0"><stop stop-color="#d6d1b9"/><stop offset=".35" stop-color="#7d8e9f"/><stop offset=".7" stop-color="#56647b"/><stop offset="1" stop-color="#bdc1b5"/></linearGradient>
    </defs><g transform="translate(3 4)" opacity=".8"><rect x="29" y="44" width="16" height="68" rx="8" fill="#070e19" stroke="#070e19" stroke-width="3"/><rect x="83" y="44" width="16" height="68" rx="8" fill="#070e19" stroke="#070e19" stroke-width="3"/><ellipse cx="36" cy="37" rx="24" ry="28" fill="#070e19" stroke="#070e19" stroke-width="3"/><ellipse cx="92" cy="37" rx="24" ry="28" fill="#070e19" stroke="#070e19" stroke-width="3"/><rect x="22" y="21" width="14" height="27" rx="7" fill="#070e19" stroke="#070e19" stroke-width="3"/><rect x="92" y="21" width="14" height="27" rx="7" fill="#070e19" stroke="#070e19" stroke-width="3"/><path d="M39 76v22M89 76v22" fill="none" stroke="#070e19" stroke-width="4" stroke-linecap="round" stroke-linejoin="round"/><path d="M54 71l10 13 10-13" fill="none" stroke="#070e19" stroke-width="4" stroke-linecap="round" stroke-linejoin="round"/></g><rect x="29" y="44" width="16" height="68" rx="8" fill="url(#pearl)" stroke="#3d5066" stroke-width="3"/><rect x="83" y="44" width="16" height="68" rx="8" fill="url(#pearl)" stroke="#3d5066" stroke-width="3"/><ellipse cx="36" cy="37" rx="24" ry="28" fill="url(#pearl)" stroke="#3d5066" stroke-width="3"/><ellipse cx="92" cy="37" rx="24" ry="28" fill="url(#pearl)" stroke="#3d5066" stroke-width="3"/><rect x="22" y="21" width="14" height="27" rx="7" fill="#25374a" stroke="#111b27" stroke-width="3"/><rect x="92" y="21" width="14" height="27" rx="7" fill="#25374a" stroke="#111b27" stroke-width="3"/><path d="M39 76v22M89 76v22" fill="none" stroke="#e5e9df" stroke-width="4" stroke-linecap="round" stroke-linejoin="round"/><path d="M54 71l10 13 10-13" fill="none" stroke="#eb788e" stroke-width="4" stroke-linecap="round" stroke-linejoin="round"/><path d="M18 36q0-17 14-19M108 36q0-17-14-19" fill="none" stroke="#ffffff" stroke-width="3" stroke-linecap="round" stroke-linejoin="round"/><path d="M25 28h8M96 28h8" fill="none" stroke="#718a9c" stroke-width="1.4" stroke-linecap="round" stroke-linejoin="round"/><path d="M25 33h8M96 33h8" fill="none" stroke="#718a9c" stroke-width="1.4" stroke-linecap="round" stroke-linejoin="round"/><path d="M25 38h8M96 38h8" fill="none" stroke="#718a9c" stroke-width="1.4" stroke-linecap="round" stroke-linejoin="round"/><rect x="31" y="100" width="12" height="6" rx="2" fill="#879da9" stroke="#111b27" stroke-width="0"/><rect x="85" y="100" width="12" height="6" rx="2" fill="#879da9" stroke="#111b27" stroke-width="0"/><path d="M34 57v32M94 57v32" fill="none" stroke="#ffffff" stroke-width="1.6" stroke-linecap="round" stroke-linejoin="round"/></g></svg>
