<svg xmlns="http://www.w3.org/2000/svg" width="128" height="128" viewBox="0 0 128 128"><g stroke-linecap="round" stroke-linejoin="round"><defs>
    <linearGradient id="pearl" x1="0" y1="0" x2="1" y2="1"><stop stop-color="#fcfff5"/><stop offset=".38" stop-color="#d8e4e9"/><stop offset=".62" stop-color="#a6bac8"/><stop offset="1" stop-color="#667b91"/></linearGradient>
    <linearGradient id="body" x1="0" y1="0" x2="1" y2="1"><stop stop-color="#6b829c"/><stop offset=".4" stop-color="#334c66"/><stop offset="1" stop-color="#102237"/></linearGradient>
    <linearGradient id="glass" x1="0" y1="0" x2=".7" y2="1"><stop stop-color="#456885"/><stop offset=".4" stop-color="#19384e"/><stop offset="1" stop-color="#081424"/></linearGradient>
    <linearGradient id="steel" x1="0" y1="0" x2="1" y2="0"><stop stop-color="#d6d1b9"/><stop offset=".35" stop-color="#7d8e9f"/><stop offset=".7" stop-color="#56647b"/><stop offset="1" stop-color="#bdc1b5"/></linearGradient>
    </defs><g transform="translate(3 4)" opacity=".8"><rect x="29" y="12" width="70" height="104" rx="12" fill="#070e19" stroke="#070e19" stroke-width="4"/><rect x="37" y="22" width="54" height="43" rx="5" fill="#070e19" stroke="#070e19" stroke-width="3"/><path d="M43 53v-8h8v-12h8v21h8v-14h8v10h10" fill="none" stroke="#070e19" stroke-width="3" stroke-linecap="round" stroke-linejoin="round"/><circle cx="64" cy="87" r="18" fill="#070e19" stroke="#070e19" stroke-width="2"/><circle cx="64" cy="87" r="7" fill="#070e19" stroke="#070e19" stroke-width="3"/><path d="M45 105h38" fill="none" stroke="#070e19" stroke-width="3" stroke-linecap="round" stroke-linejoin="round"/></g><rect x="29" y="12" width="70" height="104" rx="12" fill="url(#pearl)" stroke="#233545" stroke-width="4"/><rect x="37" y="22" width="54" height="43" rx="5" fill="url(#glass)" stroke="#111b27" stroke-width="3"/><path d="M43 53v-8h8v-12h8v21h8v-14h8v10h10" fill="none" stroke="#91d8ee" stroke-width="3" stroke-linecap="round" stroke-linejoin="round"/><circle cx="64" cy="87" r="18" fill="#f5f6f0" stroke="#9baeb4" stroke-width="2"/><circle cx="64" cy="87" r="7" fill="#344c62" stroke="#111b27" stroke-width="3"/><path d="M45 105h38" fill="none" stroke="#ec7781" stroke-width="3" stroke-linecap="round" stroke-linejoin="round"/><path d="M34 29v65q0 15 12 16M92 30v69" fill="none" stroke="#fbfff4" stroke-width="1.7" stroke-linecap="round" stroke-linejoin="round"/><path d="M41 26h40L41 49Z" fill="#c4edee" opacity=".12"/><path d="M51 78l-4 4 4 4M77 78l4 4-4 4" fill="none" stroke="#6c8194" stroke-width="1.6" stroke-linecap="round" stroke-linejoin="round"/><rect x="56" y="108" width="16" height="3" rx="1" fill="#152434" stroke="#111b27" stroke-width="0"/><circle cx="34" cy="18" r="2.2" fill="#111d2c" stroke="#91a6b3" stroke-width="0.8"/><path d="M33 18h2" fill="none" stroke="#d4e2de" stroke-width="0.8" stroke-linecap="round" stroke-linejoin="round"/><circle cx="94" cy="110" r="2.2" fill="#111d2c" stroke="#91a6b3" stroke-width="0.8"/><path d="M93 110h2" fill="none" stroke="#d4e2de" stroke-width="0.8" stroke-linecap="round" stroke-linejoin="round"/></g></svg>
